<!-- Credit: https://github.com/brendanballon/sfsymbols-svg -->
<svg xmlns="http://www.w3.org/2000/svg" viewBox="1 1.0024 37.02 37.02">
  <path
    d="M35.8692 3.1724C34.2578 1.604 32.1309 1.0024 27.791 1.0024L10.9473 1.0024C6.9512 1.0024 4.7598 1.6255 3.1914 3.2153 1.6016 4.7837 1 6.9106 1 10.9497L1 27.7935C1 32.1548 1.5801 34.2817 3.1699 35.8286 4.7598 37.4185 6.8867 38.02 11.2266 38.02L27.791 38.02C32.1309 38.02 34.2793 37.4185 35.8692 35.8286 37.4375 34.2603 38.0176 32.1548 38.0176 27.7935L38.0176 11.229C38.0176 6.8462 37.4375 4.7407 35.8692 3.1724ZM36.9649 10.6704 36.9649 28.3306C36.9649 31.5317 36.3633 33.6802 35.0528 35.0122 33.6992 36.3872 31.5078 36.9673 28.3496 36.9673L10.6895 36.9673C7.5098 36.9673 5.3184 36.3657 3.9863 35.0122 2.6328 33.6802 2.0527 31.5317 2.0527 28.3306L2.0527 10.9497C2.0527 7.5337 2.6328 5.3208 3.9434 3.9673 5.2969 2.5923 7.5742 2.0552 10.9688 2.0552L28.3496 2.0552C31.5078 2.0552 33.6992 2.6567 35.0528 4.0103 36.3848 5.3423 36.9649 7.4907 36.9649 10.6704ZM19.4766 29.6841C19.8203 29.6841 20.0567 29.4478 20.0567 29.1685L20.0567 20.0376 29.166 20.0376C29.4453 20.0376 29.7031 19.7583 29.7031 19.5005 29.7031 19.1997 29.4668 18.9204 29.166 18.9204L20.0567 18.9204 20.0567 9.8325C20.0567 9.5317 19.8203 9.2954 19.4766 9.2954 19.1973 9.2954 18.961 9.5317 18.961 9.8325L18.961 18.9204 9.8731 18.9204C9.5508 18.9204 9.3145 19.1997 9.3145 19.5005 9.3145 19.7583 9.5723 20.0376 9.8731 20.0376L18.961 20.0376 18.961 29.1685C18.961 29.4478 19.1973 29.6841 19.4766 29.6841Z" />
</svg>