<!-- Credit: https://github.com/brendanballon/sfsymbols-svg -->
<svg xmlns="http://www.w3.org/2000/svg" viewBox="1 0.9967 35.94 46.36">
  <path
    d="M19.0039 31.3971C19.2832 31.3971 19.5195 31.1393 19.5195 30.86L19.5195 5.5944 19.4981 2.6725 22.3555 5.5514 26.7813 9.9772C26.8887 10.0846 27.0606 10.1705 27.1895 10.1705 27.4258 10.1705 27.6621 9.9342 27.6621 9.6549 27.6621 9.526 27.5977 9.4186 27.4902 9.3112L19.3692 1.1471C19.2617 1.0612 19.1328.9967 19.0039.9967 18.875.9967 18.7246 1.0612 18.6387 1.1471L10.4746 9.3112C10.3672 9.4186 10.3027 9.526 10.3027 9.6549 10.3027 9.9342 10.5176 10.1705 10.7754 10.1705 10.9258 10.1705 11.0762 10.0846 11.1836 9.9772L15.6094 5.5514 18.4883 2.651 18.4668 5.5944 18.4668 30.86C18.4668 31.1393 18.7031 31.3971 19.0039 31.3971ZM6.5215 47.36 31.4219 47.36C35.0313 47.36 36.9434 45.3834 36.9434 41.8385L36.9434 18.8287C36.9434 15.2838 35.0313 13.3073 31.4219 13.3073L25.0195 13.3073 25.0195 14.36 31.3574 14.36C34.2363 14.36 35.8906 15.9069 35.8906 18.8932L35.8906 41.7955C35.8906 44.7604 34.2363 46.3073 31.3574 46.3073L6.5645 46.3073C3.5996 46.3073 2.0527 44.7604 2.0527 41.7955L2.0527 18.8932C2.0527 15.9069 3.5996 14.36 6.5645 14.36L12.9668 14.36 12.9668 13.3073 6.5215 13.3073C2.9121 13.3073 1 15.2194 1 18.8287L1 41.8385C1 45.4479 2.9121 47.36 6.5215 47.36Z" />
</svg>