<svg xmlns="http://www.w3.org/2000/svg" viewBox="1 0.9972 36.42 45.63">
  <path
    d="M17.3281 22.7823C17.5 22.7823 17.6074 22.7393 17.7148 22.6319L27.4473 12.5987C27.8125 12.212 27.8984 12.0401 27.8984 11.8897 27.8984 11.6964 27.791 11.5245 27.4473 11.1808L17.7363 1.169C17.6289 1.0616 17.543.9972 17.3066.9972 16.9629.9972 16.791 1.2335 16.791 1.4913 16.791 1.6847 16.834 1.8136 16.9629 1.9425L25.9434 11.1378C24.2891 10.6866 21.8184 10.2999 19.2188 10.2999 8.9922 10.2999 1 18.2276 1 28.3683 1 38.5948 8.9922 46.63 19.2188 46.63 29.4238 46.63 37.416 38.5948 37.416 28.3683 37.416 28.0675 37.2012 27.8526 36.9004 27.8526 36.5781 27.8526 36.3633 28.0675 36.3633 28.3683 36.3633 38.0147 28.8438 45.5772 19.2188 45.5772 9.5723 45.5772 2.0527 38.0147 2.0527 28.3683 2.0527 18.8077 9.5723 11.3526 19.2188 11.3526 21.8398 11.3526 24.5254 11.6749 26.3945 12.2335L16.9629 21.837C16.834 21.9659 16.791 22.0948 16.791 22.2882 16.791 22.546 16.9844 22.7823 17.3281 22.7823Z" />
</svg>