<svg xmlns="http://www.w3.org/2000/svg" viewBox="1.00003 0.9992 41.08 36.05">
  <path
    d="M21.5392 4.5656C21.2814 3.5988 17.0275.9992 11.5275.9992 6.0489.9992.9786 3.7922 1.0001 5.2961L1.0001 36.4699C1.0001 36.8137 1.2364 37.05 1.5802 37.05 1.9025 37.05 2.1388 36.9426 2.2032 36.7922 2.7404 35.6965 6.3068 33.3117 11.5275 33.3117 16.7696 33.3117 20.3146 35.6535 20.8517 36.7922 20.9376 36.9426 21.1739 37.05 21.5392 37.05 21.9044 37.05 22.1407 36.9426 22.2267 36.7922 22.7638 35.6535 26.3087 33.3117 31.5509 33.3117 36.7716 33.3117 40.338 35.6965 40.8751 36.7922 40.9396 36.9426 41.1759 37.05 41.4982 37.05 41.8419 37.05 42.0782 36.8137 42.0782 36.4699L42.0782 5.2961C42.0997 3.7922 37.0294.9992 31.5509.9992 26.0509.9992 21.797 3.5988 21.5392 4.5656ZM2.0529 5.6828C2.0529 4.5871 6.3068 2.009 11.5275 2.009 16.7482 2.009 21.0236 4.5871 21.0021 5.6828L21.0021 35.2883C19.3263 33.3117 15.6954 32.3019 11.5275 32.3019 7.381 32.3019 3.7501 33.3117 2.0529 35.2883ZM41.0255 5.6828 41.0255 35.2883C39.3282 33.3117 35.6974 32.3019 31.5509 32.3019 27.3829 32.3019 23.7521 33.3117 22.0548 35.2883L22.0548 5.6828C22.0548 4.5871 26.3302 2.009 31.5509 2.009 36.7501 2.009 41.0255 4.5871 41.0255 5.6828Z" />
</svg>