<svg xmlns="http://www.w3.org/2000/svg" viewBox="1 0.9999 43.05 52.83">
  <path
    d="M6.5215 53.83 28.6934 53.83C32.3028 53.83 33.6563 51.9179 33.6563 48.3085L33.6563 44.0331 38.5332 44.0331C42.1426 44.0331 44.0547 42.121 44.0547 38.5116L44.0547 18.1444C44.0547 17.285 43.7969 16.5761 42.9375 15.7167L29.3164 2.0956C28.457 1.2362 27.7481.9999 26.8887.9999L16.8985.9999C13.3535.9999 11.377 2.912 11.377 6.5214L11.377 10.7968 6.5215 10.7968C2.9766 10.7968 1 12.7089 1 16.3182L1 48.3085C1 51.9179 2.9121 53.83 6.5215 53.83ZM33.6563 29.0585C33.6563 27.619 33.3985 26.953 32.5176 26.0936L18.3594 11.9354C17.5 11.0761 16.834 10.7968 15.3945 10.7968L12.4297 10.7968 12.4297 6.5643C12.4297 3.7069 13.9766 2.0526 16.9629 2.0526L27.2324 2.0526 27.2324 15.1366C27.2324 17.0917 28.1133 17.8007 29.8965 17.8007L43.002 17.8007 43.002 38.4686C43.002 41.4335 41.4551 42.9804 38.4688 42.9804L33.6563 42.9804ZM29.875 16.7479C28.7363 16.7479 28.2852 16.2968 28.2852 15.1796L28.2852 2.6112 42.4219 16.7479ZM6.5645 52.7772C3.5996 52.7772 2.0527 51.2304 2.0527 48.2655L2.0527 16.3612C2.0527 13.5038 3.5996 11.8495 6.5645 11.8495L15.9746 11.8495 15.9746 25.6854C15.9746 27.662 16.9629 28.4569 18.7676 28.4569L32.6035 28.4569 32.6035 48.2655C32.6035 51.2304 31.0567 52.7772 28.0918 52.7772ZM18.8106 27.4042C17.543 27.4042 17.0488 26.91 17.0488 25.6425L17.0488 12.1503 32.3242 27.4042Z" />
</svg>