<svg xmlns="http://www.w3.org/2000/svg" viewBox="1 0.9986 37.88 48.94">
  <path
    d="M6.5215 46.2232 22.1836 46.2232C21.711 45.9224 21.2598 45.5572 20.8731 45.1705L6.586 45.1705C3.5996 45.1705 2.0527 43.6236 2.0527 40.6588L2.0527 6.5631C2.0527 3.7056 3.5996 2.0513 6.586 2.0513L29.7246 2.0513C32.711 2.0513 34.2578 3.5982 34.2578 6.5631L34.2578 31.7857C34.6445 32.1939 34.9883 32.6236 35.3106 33.0963L35.3106 6.5201C35.3106 2.9107 33.3985.9986 29.7891.9986L6.5215.9986C2.9766.9986 1 2.9107 1 6.5201L1 40.7017C1 44.3111 2.9121 46.2232 6.5215 46.2232ZM9.1426 10.6236 27.168 10.6236C27.4902 10.6236 27.7266 10.3873 27.7266 10.0865 27.7266 9.8072 27.4902 9.5494 27.168 9.5494L9.1426 9.5494C8.8203 9.5494 8.584 9.8072 8.584 10.0865 8.584 10.3873 8.8203 10.6236 9.1426 10.6236ZM9.1426 18.2506 27.168 18.2506C27.4902 18.2506 27.7266 18.0142 27.7266 17.7134 27.7266 17.4341 27.4902 17.1763 27.168 17.1763L9.1426 17.1763C8.8203 17.1763 8.584 17.4341 8.584 17.7134 8.584 18.0142 8.8203 18.2506 9.1426 18.2506ZM27.4688 46.2232C29.3379 46.2232 31.0567 45.5572 32.4102 44.4615L37.5235 49.6177C37.7383 49.8326 37.9102 49.94 38.168 49.94 38.5977 49.94 38.877 49.6607 38.877 49.2955 38.877 49.0162 38.7695 48.8873 38.5762 48.6939L33.3985 43.4947C34.5801 42.1197 35.3106 40.3365 35.3106 38.3814 35.3106 34.0845 31.7871 30.5181 27.4688 30.5181 23.1504 30.5181 19.6055 34.0845 19.6055 38.3814 19.6055 42.6998 23.1504 46.2232 27.4688 46.2232ZM27.4688 45.1705C23.7305 45.1705 20.6582 42.1197 20.6582 38.3814 20.6582 34.6646 23.7305 31.5923 27.4688 31.5923 31.207 31.5923 34.2363 34.6646 34.2363 38.3814 34.2363 42.1197 31.207 45.1705 27.4688 45.1705Z" />
</svg>