<svg xmlns="http://www.w3.org/2000/svg" viewBox="1 12.2114 54.12 20.39">
  <path
    d="M14.6426 32.6C20.293 32.6 24.8477 28.0239 24.8477 22.4165 24.8477 22.2446 24.8262 22.0727 24.8262 21.9008 25.8145 21.3207 27.082 21.0844 28.0488 21.0844 29.0371 21.0844 30.2832 21.3207 31.293 21.9008 31.2715 22.0727 31.2715 22.2446 31.2715 22.4165 31.2715 28.0239 35.8047 32.6 41.4766 32.6 46.9336 32.6 51.4023 28.2817 51.6602 22.8891L54.1953 22.8891C54.8398 22.8891 55.1191 22.5883 55.1191 22.0512L55.1191 21.7934C55.1191 21.2348 54.8398 20.934 54.1953 20.934L51.6816 20.934 51.5527 20.9555C50.8438 16.0356 46.6113 12.2114 41.4766 12.2114 36.5781 12.2114 32.4961 15.6704 31.5078 20.225 30.4766 19.6665 29.123 19.4516 28.0488 19.4516 26.9746 19.4516 25.6211 19.6665 24.6113 20.225 23.6016 15.6704 19.5195 12.2114 14.6426 12.2114 9.5078 12.2114 5.2539 16.0356 4.5449 20.9555 4.502 20.9555 4.4805 20.934 4.416 20.934L1.9238 20.934C1.2793 20.934 1 21.2348 1 21.7934L1 22.0512C1 22.5883 1.2793 22.8891 1.9238 22.8891L4.459 22.8891C4.7168 28.2817 9.1641 32.6 14.6426 32.6ZM14.6426 31.5473C9.5938 31.5473 5.5117 27.4653 5.5117 22.4165 5.5117 17.3676 9.5938 13.2641 14.6426 13.2641 19.6699 13.2641 23.7734 17.3676 23.7734 22.4165 23.7734 27.4653 19.7129 31.5473 14.6426 31.5473ZM41.4766 31.5473C36.3848 31.5473 32.3242 27.4653 32.3242 22.4165 32.3242 17.3676 36.3848 13.2641 41.4766 13.2641 46.5254 13.2641 50.6074 17.3676 50.6074 22.4165 50.6074 27.4653 46.5254 31.5473 41.4766 31.5473Z" />
</svg>