<svg xmlns="http://www.w3.org/2000/svg" viewBox="1 1.0018 41.64 41.66">
  <path
    d="M21.8184 42.66C33.2695 42.66 42.6367 33.2928 42.6367 21.8202 42.6367 10.369 33.2695 1.0018 21.8184 1.0018 10.3672 1.0018 1 10.369 1 21.8202 1 33.2928 10.3672 42.66 21.8184 42.66ZM21.1953 11.8944 17.543 23.4315 16.8555 23.4315C16.2324 23.4315 15.7168 23.9256 15.5879 24.5487L12.2363 39.1151C6.1563 35.742 2.0527 29.2538 2.0527 21.8202 2.0527 10.9276 10.9258 2.0545 21.8184 2.0545 32.7324 2.0545 41.584 10.9276 41.584 21.8202 41.584 29.2538 37.4805 35.7206 31.4434 39.0936L28.0918 24.5487C27.9414 23.9256 27.4258 23.4315 26.8027 23.4315L26.1367 23.4315 22.4414 11.8944C22.248 11.3143 21.3887 11.2928 21.1953 11.8944ZM21.8184 41.6073C18.7461 41.6073 15.8242 40.8983 13.2246 39.6307L16.7051 24.5057 26.9746 24.5057 30.4336 39.6307C27.834 40.8983 24.9121 41.6073 21.8184 41.6073Z" />
</svg>