<svg xmlns="http://www.w3.org/2000/svg" viewBox="1 0.9984 45.46 44.6">
  <path
    d="M6.0703 38.4672 9.2285 38.4672 9.2285 41.0668C9.2285 44.225 10.6465 45.6 13.7832 45.6L33.6778 45.6C36.8145 45.6 38.2539 44.225 38.2539 41.0668L38.2539 38.4672 41.3906 38.4672C44.7852 38.4672 46.461 36.8344 46.461 33.4184L46.461 13.1801C46.461 9.7641 44.7852 8.1098 41.3906 8.1098L38.2539 8.1098 38.2539 5.4887C38.2539 2.3519 36.836.9984 33.7207.9984L13.7402.9984C10.625.9984 9.2285 2.3519 9.2285 5.4887L9.2285 8.1098 6.0703 8.1098C2.6973 8.1098 1 9.7641 1 13.1801L1 33.4184C1 36.8344 2.6973 38.4672 6.0703 38.4672ZM10.2813 5.4887C10.2813 2.9535 11.2051 1.9867 13.7402 1.9867L33.7207 1.9867C36.2559 1.9867 37.1797 2.9535 37.1797 5.4887L37.1797 8.1098 10.2813 8.1098ZM6.0703 37.4574C3.2559 37.4574 2.0527 36.2113 2.0527 33.3969L2.0527 13.1801C2.0527 10.3656 3.2559 9.1195 6.0703 9.1195L41.3906 9.1195C44.2051 9.1195 45.4082 10.3656 45.4082 13.1801L45.4082 33.3969C45.4082 36.2113 44.2051 37.4574 41.3906 37.4574L38.2539 37.4574 38.2539 24.4809C38.2539 21.3227 36.8145 19.9477 33.6778 19.9477L13.7832 19.9477C10.6465 19.9477 9.2285 21.3227 9.2285 24.4809L9.2285 37.4574ZM13.7617 44.6117C11.2051 44.6117 10.2813 43.6449 10.2813 41.0883L10.2813 24.4809C10.2813 21.9242 11.2051 20.9574 13.7617 20.9574L33.6992 20.9574C36.2559 20.9574 37.2012 21.9242 37.2012 24.4809L37.2012 41.0883C37.2012 43.6449 36.2559 44.6117 33.6992 44.6117ZM14.707 29.723 32.7539 29.723C33.0762 29.723 33.3125 29.4867 33.3125 29.1859 33.3125 28.8852 33.0762 28.6488 32.7539 28.6488L14.707 28.6488C14.3848 28.6488 14.1485 28.8852 14.1485 29.1859 14.1485 29.4867 14.3848 29.723 14.707 29.723ZM14.707 37.35 32.7539 37.35C33.0762 37.35 33.3125 37.1137 33.3125 36.8129 33.3125 36.5121 33.0762 36.2758 32.7539 36.2758L14.707 36.2758C14.3848 36.2758 14.1485 36.5121 14.1485 36.8129 14.1485 37.1137 14.3848 37.35 14.707 37.35Z" />
</svg>