<svg xmlns="http://www.w3.org/2000/svg" viewBox="1 0.9975 44.32 43.31">
  <path
    d="M6.5215 35.2866 10.8613 35.2866 10.8613 38.81C10.8613 42.3979 12.7735 44.31 16.3828 44.31L39.8008 44.31C43.4102 44.31 45.3223 42.3764 45.3223 38.8315L45.3223 15.5424C45.3223 11.9975 43.4102 10.0209 39.8008 10.0209L35.461 10.0209 35.461 6.519C35.461 2.9526 33.5488.9975 29.9395.9975L6.5215.9975C2.9121.9975 1 2.9096 1 6.519L1 29.7866C1 33.3745 2.9121 35.2866 6.5215 35.2866ZM6.5645 34.2338C3.5996 34.2338 2.0527 32.7084 2.0527 29.7221L2.0527 6.562C2.0527 3.5971 3.5996 2.0502 6.5645 2.0502L29.8965 2.0502C32.7539 2.0502 34.4082 3.5971 34.4082 6.562L34.4082 10.0209 16.3828 10.0209C12.7735 10.0209 10.8613 11.9331 10.8613 15.5424L10.8613 34.2338ZM16.4258 43.2573C13.418 43.2573 11.9141 41.6889 11.9141 38.7456L11.9141 15.5854C11.9141 12.6206 13.461 11.0737 16.4258 11.0737L39.7363 11.0737C42.6153 11.0737 44.2695 12.6206 44.2695 15.5854L44.2695 38.767C44.2695 41.7534 42.6153 43.2573 39.7363 43.2573Z" />
</svg>