<svg xmlns="http://www.w3.org/2000/svg" viewBox="1.00002 0.9993 45.01 42.92">
  <path
    d="M9.6599 43.7317C10.0251 44.011 10.4763 44.011 11.1423 43.5169L23.5173 34.4934 35.8708 43.5169C36.5369 44.011 36.988 44.011 37.3747 43.7317 37.74 43.4739 37.9119 43.0442 37.6326 42.2063L32.8845 27.6829 45.3025 18.7024C45.9685 18.2083 46.0974 17.7571 45.9685 17.3274 45.8396 16.8977 45.4744 16.5969 44.615 16.5969L29.3181 16.6399 24.613 2.0735C24.3337 1.2786 23.9685.9993 23.5173.9993 23.0662.9993 22.6794 1.2786 22.4001 2.0735L17.7165 16.6399 2.4197 16.5969C1.5603 16.5969 1.1736 16.8977 1.0447 17.3274.9158 17.7571 1.0447 18.2083 1.7107 18.7024L14.1287 27.6829 9.3806 42.2063C9.1013 43.0442 9.2732 43.4739 9.6599 43.7317ZM10.3474 42.7649C10.2615 42.7005 10.3259 42.6145 10.3689 42.4212L15.0954 28.0266C15.2673 27.554 15.1169 27.1243 14.6872 26.8235L2.3982 17.9719C2.2478 17.8645 2.1619 17.7786 2.1833 17.6926 2.2048 17.6067 2.3122 17.6067 2.5056 17.6067L17.7165 17.6712C18.2107 17.6712 18.5329 17.4133 18.6833 16.9192L23.324 2.5032C23.3669 2.3098 23.4314 2.2024 23.5173 2.2024 23.6033 2.2024 23.6462 2.3098 23.7107 2.5032L28.3298 16.9192C28.4802 17.4133 28.824 17.6712 29.2966 17.6712L44.5076 17.6067C44.7009 17.6067 44.8083 17.6067 44.8298 17.6926 44.8728 17.7786 44.7869 17.8645 44.615 17.9719L32.3259 26.8235C31.8962 27.1243 31.7673 27.554 31.9177 28.0266L36.6443 42.4212C36.7087 42.6145 36.7517 42.7005 36.6658 42.7649 36.6013 42.8079 36.5154 42.7649 36.3435 42.636L24.1404 33.677C23.7322 33.3977 23.3025 33.3977 22.8943 33.677L10.6697 42.636C10.5193 42.7649 10.4333 42.8079 10.3474 42.7649Z" />
</svg>