<svg xmlns="http://www.w3.org/2000/svg" viewBox="1 0.9965 45.85 31.6">
  <path
    d="M22.2051 32.6C22.4629 32.6 22.5918 32.4711 22.7422 32.1703L26.8887 21.4067 41.6055 21.4067 45.7735 32.1703C45.9024 32.4711 46.0313 32.6 46.332 32.6 46.6328 32.6 46.8477 32.4281 46.8477 32.1059 46.8477 31.9985 46.8262 31.8696 46.7617 31.7406L34.8809 1.4477C34.7735 1.2113 34.6016.9965 34.2578.9965 33.9356.9965 33.7207 1.1684 33.6133 1.4477L21.7324 31.7406C21.6895 31.8696 21.668 32.0414 21.668 32.1274 21.668 32.4281 21.8613 32.6 22.2051 32.6ZM27.2754 20.4399 34.2149 2.6293 34.3008 2.6293 41.2403 20.4399ZM1.5156 32.6C1.8379 32.6 1.9453 32.4711 2.0742 32.1703L4.9746 24.6508 14.3203 24.6508 17.2207 32.1703C17.3711 32.4711 17.457 32.6 17.8008 32.6 18.0586 32.6 18.3164 32.4281 18.3164 32.1059 18.3164 31.9985 18.2735 31.8696 18.2305 31.7406L10.2383 11.266C10.1524 11.0082 9.959 10.8578 9.6582 10.8578 9.336 10.8578 9.1641 11.0082 9.0567 11.266L1.086 31.7406C1.0215 31.8696 1 31.9985 1 32.1059 1 32.4281 1.2149 32.6 1.5156 32.6ZM5.3828 23.684 9.6367 12.7055 9.6797 12.7055 13.9336 23.684Z" />
</svg>